<svg width="32" height="32" viewBox="0 0 32 32" fill="none" xmlns="http://www.w3.org/2000/svg">
<rect width="32" height="32" rx="4" fill="black"/>
<path d="M12.8495 12H13.171C14.4092 12.0768 15.3806 12.4748 15.9963 13.2954C16.6211 12.472 17.5925 12.0714 18.8376 12H19.1454C21.9068 12.225 23.1656 14.6072 25.3706 15.6199C25.7134 15.8074 26.0864 15.9011 26.4629 15.8943C27.0284 15.8202 27.3887 15.1314 27.3157 14.363C27.2382 13.5396 26.5678 12.8233 25.8198 13.2185C25.7217 13.274 25.6316 13.3481 25.5531 13.4381C25.496 13.5012 25.4322 13.6659 25.2863 13.6055C25.1494 13.4683 25.2863 13.2679 25.3569 13.1527C25.492 12.8637 25.6963 12.6305 25.9433 12.4836C26.1903 12.3367 26.4683 12.2829 26.7411 12.3293C28.0249 12.4391 29.1742 13.7949 28.9781 15.8477C28.5402 18.9022 26.2189 19.7256 23.4666 20H22.5704C20.1685 19.882 17.8646 18.8218 16.01 16.9811C14.1416 18.8171 11.8298 19.8762 9.41991 20H8.53971C5.76686 19.7063 3.42271 18.9022 3.01454 15.7571C2.85948 13.5177 3.9677 12.4172 5.25379 12.3046C5.52882 12.2576 5.80925 12.3109 6.05884 12.4577C6.30843 12.6044 6.51571 12.8379 6.6539 13.128C6.71775 13.2542 6.83632 13.4491 6.72459 13.6C6.58549 13.6302 6.51708 13.4985 6.45779 13.4326C6.37443 13.328 6.27468 13.2444 6.16431 13.1864C6.05395 13.1285 5.93514 13.0974 5.81475 13.095C4.93455 13.0566 4.42832 14.234 4.77949 15.1835C4.84833 15.3678 4.95499 15.5279 5.08942 15.6489C5.22385 15.7699 5.38164 15.8477 5.54795 15.8751C5.92412 15.8782 6.29651 15.7847 6.64022 15.6007C6.94681 15.4592 7.24216 15.2847 7.52269 15.0792C9.19872 13.9101 10.5099 12.2497 12.8495 12Z" fill="white"/>
</svg>
